# xmcd CD database file
# Copyright (C) 1997 Ti Kan
# 
# Track frame offsets:
#     150
#     21894
#     41688
#     59405
#     81312
#     99661
#     118385
#     136903
#     153425
#     171626
#     189858
#     203151
# 
# Disc length: 2998 seconds
# 
# Revision: 1
# Processed by: cddbd v1.4b41PL1 Copyright (c) Steve Scherf et al.
# Submitted via: DiscPlay 4.0.4
# 
DISCID=aa0bb40c
DTITLE=Caitlin Hanford - Bluer Skies
DYEAR=1900
DGENRE=
TTITLE0=The Nature of My Blues
TTITLE1=Home Sweet Home
TTITLE2=Romance is a Slow Dance
TTITLE3=Muddy River
TTITLE4=Love Will Really Be a Simple Thing
TTITLE5=Radiates
TTITLE6=Two Days in April
TTITLE7=Red Clay Halo
TTITLE8=Little Hotel Room
TTITLE9=When I've Got the Moon
TTITLE10=For the Chance of Lovin' You
TTITLE11=That Lonesome Whistle Sound
EXTD=
EXTT0=
EXTT1=
EXTT2=
EXTT3=
EXTT4=
EXTT5=
EXTT6=
EXTT7=
EXTT8=
EXTT9=
EXTT10=
EXTT11=
PLAYORDER=
